# xmcd CD database file
#
# Track frame offsets:
#	150
#	46903
#	88496
#	136708
#	170836
#	194348
#	237095
#	285897
#	320635
#	336572
#
# Disc length: 4750 seconds
#
# Revision: 0
# Processed by: cddbd v1.5.2PL0 Copyright (c) Steve Scherf et al.
# Submitted via: CDex 1.51
#
DISCID=92128c0a
DTITLE=John Coltrane - Ballads - CD3
DYEAR=2015
DGENRE=Jazz
TTITLE0=John Coltrane - Invitation
TTITLE1=John Coltrane - Don't take your love from me
TTITLE2=John Coltrane - Stardust
TTITLE3=John Coltrane - My ideal
TTITLE4=John Coltrane - Do I love you because you are beautiful
TTITLE5=John Coltrane - Then I'll be tired of you
TTITLE6=John Coltrane - Something I dreamed last night
TTITLE7=John Coltrane - Time after time
TTITLE8=John Coltrane - Stairway to the stars
TTITLE9=John Coltrane - The night we called it a day
EXTD=YEAR: 2015
EXTT0=
EXTT1=
EXTT2=
EXTT3=
EXTT4=
EXTT5=
EXTT6=
EXTT7=
EXTT8=
EXTT9=
PLAYORDER=
